<mxfile host="app.diagrams.net" modified="2021-05-15T14:33:47.832Z" agent="5.0 (Windows NT 10.0; WOW64) AppleWebKit/537.36 (KHTML, like Gecko) Chrome/84.0.4147.89 Safari/537.36 SLBrowser/7.0.0.4071 SLBChan/3" etag="ceCINRVad_PQUXEihH2R" version="14.6.13" type="github">
  <diagram id="10zEApmptOZsgq90Q_0-" name="Page-1">
    <mxGraphModel dx="1038" dy="549" grid="0" gridSize="10" guides="1" tooltips="1" connect="1" arrows="1" fold="1" page="1" pageScale="1" pageWidth="827" pageHeight="1169" math="0" shadow="0">
      <root>
        <mxCell id="0" />
        <mxCell id="1" parent="0" />
        <mxCell id="GXsNdN6X-SuUtYuK0dRK-1" value="强不跳转&lt;br&gt;00" style="ellipse;whiteSpace=wrap;html=1;" vertex="1" parent="1">
          <mxGeometry x="140" y="160" width="120" height="80" as="geometry" />
        </mxCell>
        <mxCell id="GXsNdN6X-SuUtYuK0dRK-2" value="弱不跳转&lt;br&gt;01" style="ellipse;whiteSpace=wrap;html=1;" vertex="1" parent="1">
          <mxGeometry x="300" y="160" width="120" height="80" as="geometry" />
        </mxCell>
        <mxCell id="GXsNdN6X-SuUtYuK0dRK-3" value="弱不跳转&lt;br&gt;10" style="ellipse;whiteSpace=wrap;html=1;" vertex="1" parent="1">
          <mxGeometry x="460" y="160" width="120" height="80" as="geometry" />
        </mxCell>
        <mxCell id="GXsNdN6X-SuUtYuK0dRK-4" value="强不跳转&lt;br&gt;11" style="ellipse;whiteSpace=wrap;html=1;" vertex="1" parent="1">
          <mxGeometry x="620" y="160" width="120" height="80" as="geometry" />
        </mxCell>
        <mxCell id="GXsNdN6X-SuUtYuK0dRK-7" value="" style="endArrow=classic;html=1;exitX=0.5;exitY=0;exitDx=0;exitDy=0;" edge="1" parent="1" source="GXsNdN6X-SuUtYuK0dRK-1">
          <mxGeometry width="50" height="50" relative="1" as="geometry">
            <mxPoint x="220" y="110" as="sourcePoint" />
            <mxPoint x="360" y="160" as="targetPoint" />
            <Array as="points">
              <mxPoint x="280" y="130" />
            </Array>
          </mxGeometry>
        </mxCell>
        <mxCell id="GXsNdN6X-SuUtYuK0dRK-8" value="" style="endArrow=classic;html=1;exitX=0.5;exitY=0;exitDx=0;exitDy=0;" edge="1" parent="1">
          <mxGeometry width="50" height="50" relative="1" as="geometry">
            <mxPoint x="350" y="160" as="sourcePoint" />
            <mxPoint x="510" y="160" as="targetPoint" />
            <Array as="points">
              <mxPoint x="430" y="130" />
            </Array>
          </mxGeometry>
        </mxCell>
        <mxCell id="GXsNdN6X-SuUtYuK0dRK-9" value="" style="endArrow=classic;html=1;exitX=0.5;exitY=0;exitDx=0;exitDy=0;" edge="1" parent="1">
          <mxGeometry width="50" height="50" relative="1" as="geometry">
            <mxPoint x="520" y="160" as="sourcePoint" />
            <mxPoint x="680" y="160" as="targetPoint" />
            <Array as="points">
              <mxPoint x="600" y="130" />
            </Array>
          </mxGeometry>
        </mxCell>
        <mxCell id="GXsNdN6X-SuUtYuK0dRK-10" value="" style="curved=1;endArrow=classic;html=1;exitX=0.077;exitY=0.78;exitDx=0;exitDy=0;exitPerimeter=0;entryX=0;entryY=0;entryDx=0;entryDy=0;" edge="1" parent="1" source="GXsNdN6X-SuUtYuK0dRK-1" target="GXsNdN6X-SuUtYuK0dRK-1">
          <mxGeometry width="50" height="50" relative="1" as="geometry">
            <mxPoint x="100" y="210" as="sourcePoint" />
            <mxPoint x="150" y="160" as="targetPoint" />
            <Array as="points">
              <mxPoint x="100" y="230" />
              <mxPoint x="100" y="160" />
            </Array>
          </mxGeometry>
        </mxCell>
        <mxCell id="GXsNdN6X-SuUtYuK0dRK-11" value="" style="curved=1;endArrow=classic;html=1;exitX=1;exitY=0;exitDx=0;exitDy=0;entryX=0.91;entryY=0.82;entryDx=0;entryDy=0;entryPerimeter=0;" edge="1" parent="1" source="GXsNdN6X-SuUtYuK0dRK-4" target="GXsNdN6X-SuUtYuK0dRK-4">
          <mxGeometry width="50" height="50" relative="1" as="geometry">
            <mxPoint x="720" y="120" as="sourcePoint" />
            <mxPoint x="770" y="70" as="targetPoint" />
            <Array as="points">
              <mxPoint x="790" y="172" />
              <mxPoint x="770" y="226" />
            </Array>
          </mxGeometry>
        </mxCell>
        <mxCell id="GXsNdN6X-SuUtYuK0dRK-12" value="" style="endArrow=classic;html=1;exitX=0.5;exitY=1;exitDx=0;exitDy=0;entryX=0.5;entryY=1;entryDx=0;entryDy=0;" edge="1" parent="1" source="GXsNdN6X-SuUtYuK0dRK-2" target="GXsNdN6X-SuUtYuK0dRK-1">
          <mxGeometry width="50" height="50" relative="1" as="geometry">
            <mxPoint x="390" y="300" as="sourcePoint" />
            <mxPoint x="440" y="250" as="targetPoint" />
            <Array as="points">
              <mxPoint x="280" y="270" />
            </Array>
          </mxGeometry>
        </mxCell>
        <mxCell id="GXsNdN6X-SuUtYuK0dRK-13" value="" style="endArrow=classic;html=1;exitX=0.5;exitY=1;exitDx=0;exitDy=0;entryX=0.5;entryY=1;entryDx=0;entryDy=0;" edge="1" parent="1">
          <mxGeometry width="50" height="50" relative="1" as="geometry">
            <mxPoint x="510" y="240" as="sourcePoint" />
            <mxPoint x="350" y="240" as="targetPoint" />
            <Array as="points">
              <mxPoint x="430" y="270" />
            </Array>
          </mxGeometry>
        </mxCell>
        <mxCell id="GXsNdN6X-SuUtYuK0dRK-14" value="" style="endArrow=classic;html=1;exitX=0.5;exitY=1;exitDx=0;exitDy=0;entryX=0.5;entryY=1;entryDx=0;entryDy=0;" edge="1" parent="1">
          <mxGeometry width="50" height="50" relative="1" as="geometry">
            <mxPoint x="680" y="240" as="sourcePoint" />
            <mxPoint x="520" y="240" as="targetPoint" />
            <Array as="points">
              <mxPoint x="600" y="270" />
            </Array>
          </mxGeometry>
        </mxCell>
        <mxCell id="GXsNdN6X-SuUtYuK0dRK-15" value="不跳转" style="text;html=1;strokeColor=none;fillColor=none;align=center;verticalAlign=middle;whiteSpace=wrap;rounded=0;" vertex="1" parent="1">
          <mxGeometry x="590" y="280" width="40" height="20" as="geometry" />
        </mxCell>
        <mxCell id="GXsNdN6X-SuUtYuK0dRK-16" value="跳转" style="text;html=1;strokeColor=none;fillColor=none;align=center;verticalAlign=middle;whiteSpace=wrap;rounded=0;" vertex="1" parent="1">
          <mxGeometry x="240" y="110" width="40" height="20" as="geometry" />
        </mxCell>
        <mxCell id="GXsNdN6X-SuUtYuK0dRK-18" value="跳转" style="text;html=1;strokeColor=none;fillColor=none;align=center;verticalAlign=middle;whiteSpace=wrap;rounded=0;" vertex="1" parent="1">
          <mxGeometry x="420" y="100" width="40" height="20" as="geometry" />
        </mxCell>
        <mxCell id="GXsNdN6X-SuUtYuK0dRK-19" value="跳转" style="text;html=1;strokeColor=none;fillColor=none;align=center;verticalAlign=middle;whiteSpace=wrap;rounded=0;" vertex="1" parent="1">
          <mxGeometry x="590" y="100" width="40" height="20" as="geometry" />
        </mxCell>
        <mxCell id="GXsNdN6X-SuUtYuK0dRK-20" value="不跳转" style="text;html=1;strokeColor=none;fillColor=none;align=center;verticalAlign=middle;whiteSpace=wrap;rounded=0;" vertex="1" parent="1">
          <mxGeometry x="420" y="280" width="40" height="20" as="geometry" />
        </mxCell>
        <mxCell id="GXsNdN6X-SuUtYuK0dRK-21" value="不跳转" style="text;html=1;strokeColor=none;fillColor=none;align=center;verticalAlign=middle;whiteSpace=wrap;rounded=0;" vertex="1" parent="1">
          <mxGeometry x="260" y="280" width="40" height="20" as="geometry" />
        </mxCell>
        <mxCell id="GXsNdN6X-SuUtYuK0dRK-22" value="不跳转" style="text;html=1;strokeColor=none;fillColor=none;align=center;verticalAlign=middle;whiteSpace=wrap;rounded=0;" vertex="1" parent="1">
          <mxGeometry x="60" y="180" width="40" height="20" as="geometry" />
        </mxCell>
        <mxCell id="GXsNdN6X-SuUtYuK0dRK-23" value="跳转" style="text;html=1;strokeColor=none;fillColor=none;align=center;verticalAlign=middle;whiteSpace=wrap;rounded=0;" vertex="1" parent="1">
          <mxGeometry x="760" y="150" width="40" height="20" as="geometry" />
        </mxCell>
        <mxCell id="GXsNdN6X-SuUtYuK0dRK-24" value="" style="rounded=0;whiteSpace=wrap;html=1;" vertex="1" parent="1">
          <mxGeometry x="100" y="386" width="182" height="42" as="geometry" />
        </mxCell>
        <mxCell id="GXsNdN6X-SuUtYuK0dRK-25" value="" style="rounded=0;whiteSpace=wrap;html=1;" vertex="1" parent="1">
          <mxGeometry x="350" y="386" width="60" height="234" as="geometry" />
        </mxCell>
        <mxCell id="GXsNdN6X-SuUtYuK0dRK-26" value="" style="rounded=1;whiteSpace=wrap;html=1;strokeWidth=2;fillWeight=4;hachureGap=8;hachureAngle=45;fillColor=#1ba1e2;sketch=1;" vertex="1" parent="1">
          <mxGeometry x="192" y="391" width="90" height="37" as="geometry" />
        </mxCell>
        <mxCell id="GXsNdN6X-SuUtYuK0dRK-27" value="分支预测缓冲" style="text;html=1;strokeColor=none;fillColor=none;align=center;verticalAlign=middle;whiteSpace=wrap;rounded=0;" vertex="1" parent="1">
          <mxGeometry x="340" y="360" width="80" height="20" as="geometry" />
        </mxCell>
        <mxCell id="GXsNdN6X-SuUtYuK0dRK-28" value="PC" style="text;html=1;strokeColor=none;fillColor=none;align=center;verticalAlign=middle;whiteSpace=wrap;rounded=0;" vertex="1" parent="1">
          <mxGeometry x="50" y="397" width="40" height="20" as="geometry" />
        </mxCell>
        <mxCell id="GXsNdN6X-SuUtYuK0dRK-29" value="10位" style="text;html=1;strokeColor=none;fillColor=none;align=center;verticalAlign=middle;whiteSpace=wrap;rounded=0;" vertex="1" parent="1">
          <mxGeometry x="217" y="360" width="40" height="20" as="geometry" />
        </mxCell>
        <mxCell id="GXsNdN6X-SuUtYuK0dRK-30" value="" style="endArrow=none;html=1;exitX=0;exitY=0.5;exitDx=0;exitDy=0;entryX=1;entryY=0.5;entryDx=0;entryDy=0;" edge="1" parent="1" source="GXsNdN6X-SuUtYuK0dRK-25" target="GXsNdN6X-SuUtYuK0dRK-25">
          <mxGeometry width="50" height="50" relative="1" as="geometry">
            <mxPoint x="500" y="440" as="sourcePoint" />
            <mxPoint x="550" y="440" as="targetPoint" />
          </mxGeometry>
        </mxCell>
        <mxCell id="GXsNdN6X-SuUtYuK0dRK-31" value="" style="endArrow=none;html=1;exitX=0;exitY=0.5;exitDx=0;exitDy=0;entryX=1;entryY=0.5;entryDx=0;entryDy=0;" edge="1" parent="1">
          <mxGeometry width="50" height="50" relative="1" as="geometry">
            <mxPoint x="350" y="450" as="sourcePoint" />
            <mxPoint x="410" y="450" as="targetPoint" />
          </mxGeometry>
        </mxCell>
        <mxCell id="GXsNdN6X-SuUtYuK0dRK-32" value="" style="endArrow=none;html=1;exitX=0;exitY=0.5;exitDx=0;exitDy=0;entryX=1;entryY=0.5;entryDx=0;entryDy=0;" edge="1" parent="1">
          <mxGeometry width="50" height="50" relative="1" as="geometry">
            <mxPoint x="350" y="550" as="sourcePoint" />
            <mxPoint x="410" y="550" as="targetPoint" />
          </mxGeometry>
        </mxCell>
        <mxCell id="GXsNdN6X-SuUtYuK0dRK-34" value="" style="endArrow=none;dashed=1;html=1;" edge="1" parent="1">
          <mxGeometry width="50" height="50" relative="1" as="geometry">
            <mxPoint x="379.5" y="605" as="sourcePoint" />
            <mxPoint x="380" y="570" as="targetPoint" />
            <Array as="points">
              <mxPoint x="379.5" y="585" />
            </Array>
          </mxGeometry>
        </mxCell>
        <mxCell id="GXsNdN6X-SuUtYuK0dRK-35" value="1024个两位饱和&lt;br&gt;计数器" style="text;html=1;strokeColor=none;fillColor=none;align=center;verticalAlign=middle;whiteSpace=wrap;rounded=0;" vertex="1" parent="1">
          <mxGeometry x="420" y="417" width="90" height="40" as="geometry" />
        </mxCell>
        <mxCell id="GXsNdN6X-SuUtYuK0dRK-36" value="实际结果" style="rounded=0;whiteSpace=wrap;html=1;" vertex="1" parent="1">
          <mxGeometry x="460" y="540" width="70" height="60" as="geometry" />
        </mxCell>
        <mxCell id="GXsNdN6X-SuUtYuK0dRK-37" value="" style="endArrow=classic;html=1;exitX=0.5;exitY=0;exitDx=0;exitDy=0;entryX=1;entryY=0.5;entryDx=0;entryDy=0;" edge="1" parent="1" source="GXsNdN6X-SuUtYuK0dRK-36" target="GXsNdN6X-SuUtYuK0dRK-25">
          <mxGeometry width="50" height="50" relative="1" as="geometry">
            <mxPoint x="390" y="490" as="sourcePoint" />
            <mxPoint x="440" y="440" as="targetPoint" />
          </mxGeometry>
        </mxCell>
        <mxCell id="GXsNdN6X-SuUtYuK0dRK-38" value="更新" style="text;html=1;strokeColor=none;fillColor=none;align=center;verticalAlign=middle;whiteSpace=wrap;rounded=0;" vertex="1" parent="1">
          <mxGeometry x="460" y="500" width="40" height="20" as="geometry" />
        </mxCell>
        <mxCell id="GXsNdN6X-SuUtYuK0dRK-39" value="" style="endArrow=classic;html=1;exitX=0.5;exitY=1;exitDx=0;exitDy=0;" edge="1" parent="1" source="GXsNdN6X-SuUtYuK0dRK-26" target="GXsNdN6X-SuUtYuK0dRK-25">
          <mxGeometry width="50" height="50" relative="1" as="geometry">
            <mxPoint x="200" y="520" as="sourcePoint" />
            <mxPoint x="250" y="470" as="targetPoint" />
          </mxGeometry>
        </mxCell>
        <mxCell id="GXsNdN6X-SuUtYuK0dRK-40" value="" style="endArrow=classic;html=1;exitX=0.5;exitY=1;exitDx=0;exitDy=0;" edge="1" parent="1" source="GXsNdN6X-SuUtYuK0dRK-25">
          <mxGeometry width="50" height="50" relative="1" as="geometry">
            <mxPoint x="390" y="490" as="sourcePoint" />
            <mxPoint x="380" y="660" as="targetPoint" />
          </mxGeometry>
        </mxCell>
        <mxCell id="GXsNdN6X-SuUtYuK0dRK-41" value="预测值" style="text;html=1;strokeColor=none;fillColor=none;align=center;verticalAlign=middle;whiteSpace=wrap;rounded=0;" vertex="1" parent="1">
          <mxGeometry x="330" y="630" width="40" height="20" as="geometry" />
        </mxCell>
        <mxCell id="GXsNdN6X-SuUtYuK0dRK-42" value="RAS" style="rounded=0;whiteSpace=wrap;html=1;" vertex="1" parent="1">
          <mxGeometry x="77" y="970" width="120" height="60" as="geometry" />
        </mxCell>
        <mxCell id="GXsNdN6X-SuUtYuK0dRK-43" value="分支目标缓冲" style="rounded=0;whiteSpace=wrap;html=1;" vertex="1" parent="1">
          <mxGeometry x="229" y="890" width="120" height="60" as="geometry" />
        </mxCell>
        <mxCell id="GXsNdN6X-SuUtYuK0dRK-44" value="+" style="shape=trapezoid;perimeter=trapezoidPerimeter;whiteSpace=wrap;html=1;fixedSize=1;rotation=-180;" vertex="1" parent="1">
          <mxGeometry x="92" y="880" width="87" height="40" as="geometry" />
        </mxCell>
        <mxCell id="GXsNdN6X-SuUtYuK0dRK-45" value="" style="endArrow=classic;html=1;exitX=0.5;exitY=1;exitDx=0;exitDy=0;" edge="1" parent="1" source="GXsNdN6X-SuUtYuK0dRK-43">
          <mxGeometry width="50" height="50" relative="1" as="geometry">
            <mxPoint x="269" y="730" as="sourcePoint" />
            <mxPoint x="289" y="1000" as="targetPoint" />
          </mxGeometry>
        </mxCell>
        <mxCell id="GXsNdN6X-SuUtYuK0dRK-46" value="" style="endArrow=classic;html=1;" edge="1" parent="1">
          <mxGeometry width="50" height="50" relative="1" as="geometry">
            <mxPoint x="119" y="802" as="sourcePoint" />
            <mxPoint x="119" y="880" as="targetPoint" />
          </mxGeometry>
        </mxCell>
        <mxCell id="GXsNdN6X-SuUtYuK0dRK-47" value="CALL指令的PC" style="text;html=1;strokeColor=none;fillColor=none;align=center;verticalAlign=middle;whiteSpace=wrap;rounded=0;" vertex="1" parent="1">
          <mxGeometry x="60" y="780" width="100" height="20" as="geometry" />
        </mxCell>
        <mxCell id="GXsNdN6X-SuUtYuK0dRK-49" value="" style="endArrow=classic;html=1;" edge="1" parent="1">
          <mxGeometry width="50" height="50" relative="1" as="geometry">
            <mxPoint x="159" y="850" as="sourcePoint" />
            <mxPoint x="159" y="880" as="targetPoint" />
          </mxGeometry>
        </mxCell>
        <mxCell id="GXsNdN6X-SuUtYuK0dRK-50" value="4" style="text;html=1;strokeColor=none;fillColor=none;align=center;verticalAlign=middle;whiteSpace=wrap;rounded=0;" vertex="1" parent="1">
          <mxGeometry x="150" y="830" width="40" height="20" as="geometry" />
        </mxCell>
        <mxCell id="GXsNdN6X-SuUtYuK0dRK-51" value="" style="endArrow=classic;html=1;exitX=0.5;exitY=0;exitDx=0;exitDy=0;entryX=0.5;entryY=0;entryDx=0;entryDy=0;" edge="1" parent="1" source="GXsNdN6X-SuUtYuK0dRK-44" target="GXsNdN6X-SuUtYuK0dRK-42">
          <mxGeometry width="50" height="50" relative="1" as="geometry">
            <mxPoint x="250" y="790" as="sourcePoint" />
            <mxPoint x="300" y="740" as="targetPoint" />
          </mxGeometry>
        </mxCell>
        <mxCell id="GXsNdN6X-SuUtYuK0dRK-53" value="" style="endArrow=classic;html=1;entryX=0.5;entryY=0;entryDx=0;entryDy=0;" edge="1" parent="1" target="GXsNdN6X-SuUtYuK0dRK-43">
          <mxGeometry width="50" height="50" relative="1" as="geometry">
            <mxPoint x="120" y="830" as="sourcePoint" />
            <mxPoint x="300" y="740" as="targetPoint" />
            <Array as="points">
              <mxPoint x="290" y="830" />
            </Array>
          </mxGeometry>
        </mxCell>
        <mxCell id="GXsNdN6X-SuUtYuK0dRK-54" value="CALL指令的目标地址" style="text;html=1;strokeColor=none;fillColor=none;align=center;verticalAlign=middle;whiteSpace=wrap;rounded=0;" vertex="1" parent="1">
          <mxGeometry x="230" y="1010" width="100" height="20" as="geometry" />
        </mxCell>
        <mxCell id="GXsNdN6X-SuUtYuK0dRK-55" value="RAS" style="rounded=0;whiteSpace=wrap;html=1;" vertex="1" parent="1">
          <mxGeometry x="430" y="920" width="120" height="60" as="geometry" />
        </mxCell>
        <mxCell id="GXsNdN6X-SuUtYuK0dRK-56" value="分支目标缓冲" style="rounded=0;whiteSpace=wrap;html=1;" vertex="1" parent="1">
          <mxGeometry x="580" y="820" width="120" height="60" as="geometry" />
        </mxCell>
        <mxCell id="GXsNdN6X-SuUtYuK0dRK-58" value="" style="endArrow=classic;html=1;exitX=0.5;exitY=1;exitDx=0;exitDy=0;" edge="1" parent="1" source="GXsNdN6X-SuUtYuK0dRK-56">
          <mxGeometry width="50" height="50" relative="1" as="geometry">
            <mxPoint x="607" y="720" as="sourcePoint" />
            <mxPoint x="640" y="940" as="targetPoint" />
          </mxGeometry>
        </mxCell>
        <mxCell id="GXsNdN6X-SuUtYuK0dRK-59" value="" style="endArrow=classic;html=1;exitX=1;exitY=0.5;exitDx=0;exitDy=0;" edge="1" parent="1" source="GXsNdN6X-SuUtYuK0dRK-56">
          <mxGeometry width="50" height="50" relative="1" as="geometry">
            <mxPoint x="457" y="792" as="sourcePoint" />
            <mxPoint x="660" y="960" as="targetPoint" />
            <Array as="points">
              <mxPoint x="720" y="850" />
              <mxPoint x="720" y="960" />
            </Array>
          </mxGeometry>
        </mxCell>
        <mxCell id="GXsNdN6X-SuUtYuK0dRK-60" value="Return指令的PC" style="text;html=1;strokeColor=none;fillColor=none;align=center;verticalAlign=middle;whiteSpace=wrap;rounded=0;" vertex="1" parent="1">
          <mxGeometry x="590" y="770" width="100" height="20" as="geometry" />
        </mxCell>
        <mxCell id="GXsNdN6X-SuUtYuK0dRK-61" value="" style="endArrow=classic;html=1;entryX=0.5;entryY=0;entryDx=0;entryDy=0;" edge="1" parent="1" target="GXsNdN6X-SuUtYuK0dRK-56">
          <mxGeometry width="50" height="50" relative="1" as="geometry">
            <mxPoint x="640" y="800" as="sourcePoint" />
            <mxPoint x="497" y="870" as="targetPoint" />
          </mxGeometry>
        </mxCell>
        <mxCell id="GXsNdN6X-SuUtYuK0dRK-65" value="Return指令的目标地址" style="text;html=1;strokeColor=none;fillColor=none;align=center;verticalAlign=middle;whiteSpace=wrap;rounded=0;" vertex="1" parent="1">
          <mxGeometry x="577" y="1020" width="100" height="20" as="geometry" />
        </mxCell>
        <mxCell id="GXsNdN6X-SuUtYuK0dRK-66" value="选择器" style="rounded=0;whiteSpace=wrap;html=1;" vertex="1" parent="1">
          <mxGeometry x="577" y="940" width="82" height="40" as="geometry" />
        </mxCell>
        <mxCell id="GXsNdN6X-SuUtYuK0dRK-67" value="" style="endArrow=classic;html=1;exitX=0.5;exitY=1;exitDx=0;exitDy=0;" edge="1" parent="1" source="GXsNdN6X-SuUtYuK0dRK-66">
          <mxGeometry width="50" height="50" relative="1" as="geometry">
            <mxPoint x="507" y="850" as="sourcePoint" />
            <mxPoint x="618" y="1010" as="targetPoint" />
          </mxGeometry>
        </mxCell>
        <mxCell id="GXsNdN6X-SuUtYuK0dRK-68" value="" style="endArrow=classic;html=1;exitX=0.5;exitY=0;exitDx=0;exitDy=0;entryX=0.5;entryY=0;entryDx=0;entryDy=0;" edge="1" parent="1" source="GXsNdN6X-SuUtYuK0dRK-55" target="GXsNdN6X-SuUtYuK0dRK-66">
          <mxGeometry width="50" height="50" relative="1" as="geometry">
            <mxPoint x="467" y="802" as="sourcePoint" />
            <mxPoint x="490" y="880" as="targetPoint" />
            <Array as="points">
              <mxPoint x="490" y="890" />
              <mxPoint x="618" y="890" />
            </Array>
          </mxGeometry>
        </mxCell>
        <mxCell id="GXsNdN6X-SuUtYuK0dRK-69" value="Return指令？" style="text;html=1;strokeColor=none;fillColor=none;align=center;verticalAlign=middle;whiteSpace=wrap;rounded=0;" vertex="1" parent="1">
          <mxGeometry x="690" y="960" width="100" height="20" as="geometry" />
        </mxCell>
      </root>
    </mxGraphModel>
  </diagram>
</mxfile>
